<svg width="79" height="57" viewBox="0 0 79 57" fill="none" xmlns="http://www.w3.org/2000/svg">
<path d="M78.62 48.0455C78.62 50.3624 77.6996 52.5843 76.0614 54.2225C74.4232 55.8607 72.2012 56.7811 69.8844 56.7811H52.4133V0H69.8844C72.2012 0 74.4232 0.92035 76.0614 2.55858C77.6996 4.19682 78.62 6.41874 78.62 8.73555V48.0455Z" fill="#ED2939"/>
<path d="M8.73555 0C6.41874 0 4.19682 0.92035 2.55858 2.55858C0.92035 4.19682 0 6.41874 0 8.73555L0 48.0455C0 50.3624 0.92035 52.5843 2.55858 54.2225C4.19682 55.8607 6.41874 56.7811 8.73555 56.7811H26.2067V0H8.73555Z" fill="#002495"/>
<path d="M26.2068 0H52.4134V56.7811H26.2068V0Z" fill="#EEEEEE"/>
</svg>
