<svg width="196" height="148" viewBox="0 0 196 148" fill="none" xmlns="http://www.w3.org/2000/svg">
    <g filter="url(#a)">
      <path fill-rule="evenodd" clip-rule="evenodd" d="M172.609 68.994C165.641 30.388 150.062 19 141.775 19c-12.932 0-16.251 9.538-43.775 9.86C70.476 28.537 67.158 19 54.226 19c-8.288 0-23.874 11.388-30.842 49.994-3.974 22.039-8.288 54.94 1.99 58.89 12.79 4.914 17.128-7.375 31.174-17.76C70.808 99.599 77.65 97.122 98 97.122c20.351 0 27.193 2.477 41.452 13.002 14.047 10.377 18.384 22.674 31.174 17.76 10.278-3.95 5.965-36.844 1.983-58.89Zm-106.21 5.008c-4.19 0-8.209-1.651-11.172-4.59A15.612 15.612 0 0 1 50.6 58.327a15.61 15.61 0 0 1 4.627-11.084 15.865 15.865 0 0 1 11.173-4.59c4.19 0 8.21 1.651 11.172 4.591A15.612 15.612 0 0 1 82.2 58.328a15.61 15.61 0 0 1-4.628 11.083A15.865 15.865 0 0 1 66.4 74.002Zm55.302 0a7.931 7.931 0 0 1-5.586-2.295 7.804 7.804 0 0 1-2.314-5.542c0-2.079.832-4.072 2.314-5.542a7.931 7.931 0 0 1 5.586-2.295c2.095 0 4.104.825 5.586 2.295a7.804 7.804 0 0 1 2.314 5.542 7.804 7.804 0 0 1-2.314 5.542 7.933 7.933 0 0 1-5.586 2.295Zm15.8-15.674a7.931 7.931 0 0 1-5.586-2.296 7.804 7.804 0 0 1-2.314-5.542c0-2.078.832-4.072 2.314-5.541a7.931 7.931 0 0 1 5.586-2.296 7.93 7.93 0 0 1 5.586 2.296 7.804 7.804 0 0 1 2.314 5.541 7.804 7.804 0 0 1-2.314 5.542 7.931 7.931 0 0 1-5.586 2.296Z" fill="#D2D2D2"/>
    </g>
    <defs>
      <filter id="a" x="0" y="0" width="196" height="148" filterUnits="userSpaceOnUse" color-interpolation-filters="sRGB">
        <feFlood flood-opacity="0" result="BackgroundImageFix"/>
        <feColorMatrix in="SourceAlpha" values="0 0 0 0 0 0 0 0 0 0 0 0 0 0 0 0 0 0 127 0" result="hardAlpha"/>
        <feMorphology radius="4" operator="dilate" in="SourceAlpha" result="effect1_dropShadow_138_971"/>
        <feOffset/>
        <feGaussianBlur stdDeviation="7.5"/>
        <feComposite in2="hardAlpha" operator="out"/>
        <feColorMatrix values="0 0 0 0 0 0 0 0 0 0 0 0 0 0 0 0 0 0 0.1 0"/>
        <feBlend in2="BackgroundImageFix" result="effect1_dropShadow_138_971"/>
        <feBlend in="SourceGraphic" in2="effect1_dropShadow_138_971" result="shape"/>
      </filter>
    </defs>
  </svg>
