<svg width="20" height="22" viewBox="0 0 20 22" fill="none" xmlns="http://www.w3.org/2000/svg">
<g clip-path="url(#clip0_58_78)">
<path d="M19.9905 11.192C19.9905 10.351 19.9224 9.73735 19.7752 9.10095H10.1992V12.8966H15.8201C15.7068 13.8399 15.0948 15.2604 13.7349 16.215L13.7159 16.342L16.7436 18.6942L16.9534 18.7152C18.8798 16.931 19.9905 14.3058 19.9905 11.192Z" fill="#4285F4"/>
<path d="M10.1992 21.1926C12.953 21.1926 15.2648 20.2834 16.9534 18.7152L13.7349 16.215C12.8737 16.8173 11.7177 17.2378 10.1992 17.2378C7.50211 17.2378 5.21297 15.4536 4.39695 12.9875L4.27734 12.9977L1.12906 15.4411L1.08789 15.5558C2.76508 18.8969 6.21016 21.1926 10.1992 21.1926Z" fill="#FACA16"/>
<path d="M4.39695 12.9876C4.18164 12.3512 4.05703 11.6693 4.05703 10.9647C4.05703 10.2601 4.18164 9.57825 4.38562 8.94186L4.37992 8.80632L1.19219 6.32373L1.08789 6.37348C0.396641 7.75995 0 9.31689 0 10.9647C0 12.6125 0.396641 14.1694 1.08789 15.5559L4.39695 12.9876Z" fill="#FBBC05"/>
<path d="M10.1992 4.69158C12.1144 4.69158 13.4063 5.52117 14.1429 6.21445L17.0213 3.39607C15.2535 1.74825 12.953 0.736816 10.1992 0.736816C6.21016 0.736816 2.76508 3.0324 1.08789 6.37348L4.38563 8.94186C5.21297 6.4758 7.50211 4.69158 10.1992 4.69158Z" fill="#EB4335"/>
</g>
<defs>
<clipPath id="clip0_58_78">
<rect width="20" height="20.5263" fill="white" transform="translate(0 0.736816)"/>
</clipPath>
</defs>
</svg>
