<svg width="20" height="19" viewBox="0 0 20 19" fill="none" xmlns="http://www.w3.org/2000/svg">
<path d="M9.86425 18.0995L13.9819 7.23982H15.8824L20 18.0995H18.0995L17.1493 15.3394H12.7602L11.7647 18.0995H9.86425ZM13.3032 13.7557H16.5611L14.9774 9.27602H14.8869L13.3032 13.7557ZM2.71493 15.3846L1.44796 14.1176L6.0181 9.54751C5.44495 8.91403 4.94329 8.25792 4.51312 7.57919C4.08296 6.90045 3.7098 6.18401 3.39367 5.42986H5.29412C5.56561 5.97285 5.85611 6.46305 6.16561 6.90045C6.47511 7.33786 6.84827 7.79789 7.28507 8.28054C7.94872 7.55656 8.49925 6.81357 8.93665 6.05158C9.37406 5.28959 9.74359 4.47903 10.0452 3.61991H0V1.80995H6.33484V0H8.1448V1.80995H14.4796V3.61991H11.8552C11.5385 4.6908 11.1086 5.73152 10.5656 6.74208C10.0226 7.75264 9.35143 8.70287 8.55204 9.59276L10.724 11.81L10.0452 13.6652L7.23982 10.8597L2.71493 15.3846Z" fill="black"/>
</svg>
