<svg width="30" height="30" viewBox="0 0 30 30" fill="none" xmlns="http://www.w3.org/2000/svg"><path d="M25.57 4.43A14.948 14.948 0 1 0 4.43 25.57 14.947 14.947 0 1 0 25.57 4.43ZM2.187 15c0-1.134.15-2.263.448-3.357.49 1.054 1.2 1.965 1.685 3.047.625 1.39 2.304 1.005 3.045 2.223.658 1.082-.045 2.45.448 3.582.358.821 1.201 1 1.783 1.601.595.606.582 1.436.673 2.227a20.365 20.365 0 0 0 .502 2.774C5.778 25.343 2.187 20.583 2.187 15ZM15 27.813c-.716 0-1.43-.06-2.135-.18.007-.18.01-.349.028-.466.162-1.062.694-2.1 1.41-2.893.708-.784 1.679-1.314 2.276-2.202.587-.868.762-2.036.52-3.05-.355-1.497-2.39-1.997-3.487-2.809-.63-.467-1.192-1.189-2.02-1.248-.382-.026-.701.056-1.08-.042-.347-.09-.619-.277-.989-.228-.69.09-1.126.829-1.868.729-.704-.094-1.43-.918-1.59-1.59-.205-.861.477-1.14 1.207-1.218.305-.032.648-.066.94.046.386.143.569.52.915.711.65.356.78-.213.681-.79-.149-.863-.322-1.215.448-1.81.534-.409.99-.705.905-1.441-.05-.433-.288-.628-.067-1.059.168-.327.628-.623.927-.818.773-.505 3.313-.468 2.276-1.88-.305-.414-.868-1.155-1.402-1.256-.667-.126-.963.618-1.428.947-.48.34-1.417.725-1.898.2-.647-.707.43-.938.668-1.432.11-.23 0-.55-.186-.85.24-.102.486-.196.734-.283.156.115.34.184.534.2.446.03.868-.212 1.257.092.433.334.744.756 1.318.86.556.1 1.143-.223 1.28-.792.084-.345 0-.71-.08-1.068 2.496.015 4.933.762 7.008 2.15-.134-.05-.293-.045-.49.047-.405.188-.98.667-1.026 1.142-.055.54.74.615 1.119.615.567 0 1.141-.253.959-.909-.08-.284-.188-.58-.362-.758.419.29.82.605 1.201.943l-.018.018c-.384.4-.83.718-1.094 1.205-.185.343-.394.506-.77.594-.207.05-.443.067-.616.206-.484.38-.209 1.295.25 1.569.578.346 1.436.183 1.872-.311.341-.387.542-1.06 1.155-1.059.27 0 .53.106.723.295.253.263.203.508.257.837.096.583.61.267.923-.028.228.406.434.824.617 1.253-.345.496-.618 1.036-1.447.458-.495-.346-.8-.849-1.423-1.005-.544-.133-1.101.006-1.638.098-.61.106-1.335.153-1.798.616-.448.445-.685 1.042-1.161 1.49-.922.867-1.31 1.814-.714 3.04.574 1.18 1.774 1.82 3.07 1.736 1.272-.085 2.594-.823 2.557 1.026-.013.655.124 1.108.325 1.716.186.56.173 1.104.216 1.682.04.678.146 1.35.316 2.007A12.796 12.796 0 0 1 15 27.813Z" fill="#FACA16"/></svg>