<svg width="90" height="59" viewBox="0 0 90 59" fill="none" xmlns="http://www.w3.org/2000/svg"><path d="m14.652 55.23 10.839-40.2L14.23 2.435l-3.415 5.197L14.58 26.02l-9.001 1.893L.893 5.696l11.48-17.127 29.955-6.166-8.06-16.036 8.156-4.118 13.52 26.715-18.768 3.9 3.735 6.339 45.605-17.539 3.228 7.875-49.67 25.44-16.665 43.14-8.757-2.89Zm-.18-73.022c-2.409-.794-4.187-2.335-5.336-4.62-1.15-2.287-1.325-4.634-.527-7.043.796-2.412 2.336-4.195 4.62-5.348 2.284-1.153 4.629-1.33 7.033-.534 2.408.795 4.187 2.335 5.336 4.621 1.15 2.286 1.325 4.633.527 7.042-.797 2.412-2.337 4.195-4.62 5.348-2.285 1.153-4.629 1.331-7.033.534Z" fill="#D2D2D2"/></svg>